<svg xmlns="http://www.w3.org/2000/svg" viewBox="0 0 300 159.5"><defs><style>.cls-1{fill:#0c151c;}.cls-2{font-size:35.42px;}.cls-2,.cls-4,.cls-6,.cls-7{fill:#fff;}.cls-2,.cls-8{font-family:HelveticaNeue, Helvetica Neue;}.cls-3{fill:#b2c0cc;fill-rule:evenodd;}.cls-4{font-size:12px;font-family:HelveticaNeue-Medium, Helvetica Neue;font-weight:500;}.cls-5{letter-spacing:-0.02em;}.cls-6{font-size:9px;font-family:SourceHanSansKR-Normal-KSCpc-EUC-H, Source Han Sans KR;}.cls-8{font-size:7px;}</style></defs><g id="레이어_2" data-name="레이어 2"><g id="레이어_1-2" data-name="레이어 1"><rect class="cls-1" width="300" height="159.5" rx="14.01"/><text class="cls-2" transform="translate(22.88 48.22)">Koa</text><g id="icons"><g id="ic-email-14"><path id="path" class="cls-3" d="M26.85,64.4H34a1.43,1.43,0,0,1,1.43,1.43v5.71A1.43,1.43,0,0,1,34,73H26.85a1.43,1.43,0,0,1-1.43-1.43V65.83A1.43,1.43,0,0,1,26.85,64.4Zm7.85,2.5-4.28,2.86L26.13,66.9V65.83l4.29,2.86,4.28-2.86Z"/></g></g><text class="cls-4" transform="translate(43.98 72.52)">koa@g<tspan class="cls-5" x="36.95" y="0">r</tspan><tspan x="40.96" y="0">epp.co</tspan></text><text class="cls-6" transform="translate(25.26 95.73)">주요 기술</text><rect class="cls-7" x="25.33" y="101.44" width="50.67" height="10" rx="5"/><text class="cls-8" transform="translate(30.86 108.27)">Ruby on rails</text><text class="cls-6" transform="translate(25.39 129.97)">기술 태그</text><rect class="cls-7" x="24.85" y="136.31" width="31.15" height="10" rx="3.92"/><text class="cls-8" transform="translate(28.77 143.14)">Python</text></g></g></svg>